HIERARCHY
ROOT Root
{
  OFFSET 0.0 0.0 0.0
  CHANNELS 6 Xposition Yposition Zposition Zrotation Yrotation Xrotation
  JOINT Hips
  {
    OFFSET 0.0 100.0 0.0
    CHANNELS 6 Xposition Yposition Zposition Zrotation Yrotation Xrotation
    JOINT Spine1
    {
      OFFSET 5.003913 -0.037094 -0.013727
      CHANNELS 3 Zrotation Yrotation Xrotation
      JOINT Spine2
      {
        OFFSET 7.125363 -1e-06 0.0
        CHANNELS 3 Zrotation Yrotation Xrotation
        JOINT Chest
        {
          OFFSET 7.594027 1e-06 0.0
          CHANNELS 3 Zrotation Yrotation Xrotation
          JOINT Neck1
          {
            OFFSET 26.313086 -0.460272 -0.181672
            CHANNELS 3 Zrotation Yrotation Xrotation
            JOINT Neck2
            {
              OFFSET 8.045911 0.0 0.0
              CHANNELS 3 Zrotation Yrotation Xrotation
              JOINT Head
              {
                OFFSET 6.432774 0.0 0.0
                CHANNELS 3 Zrotation Yrotation Xrotation
                JOINT HeadEnd
                {
                  OFFSET 16.169773 0.06451 0.00362
                  CHANNELS 3 Zrotation Yrotation Xrotation
                }
                JOINT Jaw
                {
                  OFFSET 0.108741 3.12938 0.002639
                  CHANNELS 3 Zrotation Yrotation Xrotation
                }
                JOINT LeftEye
                {
                  OFFSET 4.45173 8.166359 3.206392
                  CHANNELS 3 Zrotation Yrotation Xrotation
                }
                JOINT RightEye
                {
                  OFFSET 4.436895 8.135758 -3.222429
                  CHANNELS 3 Zrotation Yrotation Xrotation
                }
              }
            }
          }
          JOINT LeftShoulder
          {
            OFFSET 23.218927 5.195579 1.621656
            CHANNELS 3 Zrotation Yrotation Xrotation
            JOINT LeftArm
            {
              OFFSET 15.902118 2e-06 -2e-06
              CHANNELS 3 Zrotation Yrotation Xrotation
              JOINT LeftForeArm
              {
                OFFSET 28.739307 0.0 -1e-06
                CHANNELS 3 Zrotation Yrotation Xrotation
                JOINT LeftHand
                {
                  OFFSET 27.093981 -4e-06 0.0
                  CHANNELS 3 Zrotation Yrotation Xrotation
                  JOINT LeftHandThumb1
                  {
                    OFFSET 2.276781 3.380274 0.83384
                    CHANNELS 3 Zrotation Yrotation Xrotation
                    JOINT LeftHandThumb2
                    {
                      OFFSET 4.705309 -1e-06 -1e-06
                      CHANNELS 3 Zrotation Yrotation Xrotation
                      JOINT LeftHandThumb3
                      {
                        OFFSET 2.798515 0.0 3e-06
                        CHANNELS 3 Zrotation Yrotation Xrotation
                        JOINT LeftHandThumbEnd
                        {
                          OFFSET 3.180793 4e-06 -4e-06
                          CHANNELS 3 Zrotation Yrotation Xrotation
                        }
                      }
                    }
                  }
                  JOINT LeftHandIndex1
                  {
                    OFFSET 3.247786 2.352677 0.137192
                    CHANNELS 3 Zrotation Yrotation Xrotation
                    JOINT LeftHandIndex2
                    {
                      OFFSET 6.367095 1e-06 0.0
                      CHANNELS 3 Zrotation Yrotation Xrotation
                      JOINT LeftHandIndex3
                      {
                        OFFSET 3.662364 0.0 0.0
                        CHANNELS 3 Zrotation Yrotation Xrotation
                        JOINT LeftHandIndex4
                        {
                          OFFSET 2.329242 4e-06 -4e-06
                          CHANNELS 3 Zrotation Yrotation Xrotation
                          JOINT LeftHandIndexEnd
                          {
                            OFFSET 2.767823 1e-06 0.0
                            CHANNELS 3 Zrotation Yrotation Xrotation
                          }
                        }
                      }
                    }
                  }
                  JOINT LeftHandMiddle1
                  {
                    OFFSET 3.163612 0.945023 -0.406112
                    CHANNELS 3 Zrotation Yrotation Xrotation
                    JOINT LeftHandMiddle2
                    {
                      OFFSET 6.276789 3e-06 0.0
                      CHANNELS 3 Zrotation Yrotation Xrotation
                      JOINT LeftHandMiddle3
                      {
                        OFFSET 4.35652 -1e-06 4e-06
                        CHANNELS 3 Zrotation Yrotation Xrotation
                        JOINT LeftHandMiddle4
                        {
                          OFFSET 2.996877 0.0 8e-06
                          CHANNELS 3 Zrotation Yrotation Xrotation
                          JOINT LeftHandMiddleEnd
                          {
                            OFFSET 2.323256 3e-06 -4e-06
                            CHANNELS 3 Zrotation Yrotation Xrotation
                          }
                        }
                      }
                    }
                  }
                  JOINT LeftHandRing1
                  {
                    OFFSET 2.882606 -0.309162 0.107445
                    CHANNELS 3 Zrotation Yrotation Xrotation
                    JOINT LeftHandRing2
                    {
                      OFFSET 6.033198 0.0 4e-06
                      CHANNELS 3 Zrotation Yrotation Xrotation
                      JOINT LeftHandRing3
                      {
                        OFFSET 4.350578 3e-06 0.0
                        CHANNELS 3 Zrotation Yrotation Xrotation
                        JOINT LeftHandRing4
                        {
                          OFFSET 2.651321 2e-06 -7e-06
                          CHANNELS 3 Zrotation Yrotation Xrotation
                          JOINT LeftHandRingEnd
                          {
                            OFFSET 1.937663 1e-06 -4e-06
                            CHANNELS 3 Zrotation Yrotation Xrotation
                          }
                        }
                      }
                    }
                  }
                  JOINT LeftHandPinky1
                  {
                    OFFSET 2.865315 -1.525436 0.575687
                    CHANNELS 3 Zrotation Yrotation Xrotation
                    JOINT LeftHandPinky2
                    {
                      OFFSET 5.54936 1e-06 -8e-06
                      CHANNELS 3 Zrotation Yrotation Xrotation
                      JOINT LeftHandPinky3
                      {
                        OFFSET 3.070974 0.0 -4e-06
                        CHANNELS 3 Zrotation Yrotation Xrotation
                        JOINT LeftHandPinky4
                        {
                          OFFSET 1.549672 1e-06 0.0
                          CHANNELS 3 Zrotation Yrotation Xrotation
                          JOINT LeftHandPinkyEnd
                          {
                            OFFSET 1.952123 0.0 0.0
                            CHANNELS 3 Zrotation Yrotation Xrotation
                          }
                        }
                      }
                    }
                  }
                }
              }
            }
          }
          JOINT RightShoulder
          {
            OFFSET 23.161716 5.296122 -1.380114
            CHANNELS 3 Zrotation Yrotation Xrotation
            JOINT RightArm
            {
              OFFSET -16.027195 -2e-06 1.1e-05
              CHANNELS 3 Zrotation Yrotation Xrotation
              JOINT RightForeArm
              {
                OFFSET -28.736639 4e-06 2e-06
                CHANNELS 3 Zrotation Yrotation Xrotation
                JOINT RightHand
                {
                  OFFSET -27.133619 6e-06 0.0
                  CHANNELS 3 Zrotation Yrotation Xrotation
                  JOINT RightHandThumb1
                  {
                    OFFSET -2.274328 -3.351035 -0.83067
                    CHANNELS 3 Zrotation Yrotation Xrotation
                    JOINT RightHandThumb2
                    {
                      OFFSET -4.703594 -3e-06 2e-06
                      CHANNELS 3 Zrotation Yrotation Xrotation
                      JOINT RightHandThumb3
                      {
                        OFFSET -2.794935 -4e-06 -3e-06
                        CHANNELS 3 Zrotation Yrotation Xrotation
                        JOINT RightHandThumbEnd
                        {
                          OFFSET -3.183852 4e-06 1e-06
                          CHANNELS 3 Zrotation Yrotation Xrotation
                        }
                      }
                    }
                  }
                  JOINT RightHandIndex1
                  {
                    OFFSET -3.253496 -2.33755 -0.127667
                    CHANNELS 3 Zrotation Yrotation Xrotation
                    JOINT RightHandIndex2
                    {
                      OFFSET -6.344434 0.0 0.0
                      CHANNELS 3 Zrotation Yrotation Xrotation
                      JOINT RightHandIndex3
                      {
                        OFFSET -3.654871 0.0 -8e-06
                        CHANNELS 3 Zrotation Yrotation Xrotation
                        JOINT RightHandIndex4
                        {
                          OFFSET -2.327586 -1e-06 0.0
                          CHANNELS 3 Zrotation Yrotation Xrotation
                          JOINT RightHandIndexEnd
                          {
                            OFFSET -2.770001 3e-06 8e-06
                            CHANNELS 3 Zrotation Yrotation Xrotation
                          }
                        }
                      }
                    }
                  }
                  JOINT RightHandMiddle1
                  {
                    OFFSET -3.168223 -0.944764 0.411762
                    CHANNELS 3 Zrotation Yrotation Xrotation
                    JOINT RightHandMiddle2
                    {
                      OFFSET -6.266691 -1e-06 -4e-06
                      CHANNELS 3 Zrotation Yrotation Xrotation
                      JOINT RightHandMiddle3
                      {
                        OFFSET -4.348901 0.0 0.0
                        CHANNELS 3 Zrotation Yrotation Xrotation
                        JOINT RightHandMiddle4
                        {
                          OFFSET -3.00024 2e-06 -4e-06
                          CHANNELS 3 Zrotation Yrotation Xrotation
                          JOINT RightHandMiddleEnd
                          {
                            OFFSET -2.321477 -4e-06 -4e-06
                            CHANNELS 3 Zrotation Yrotation Xrotation
                          }
                        }
                      }
                    }
                  }
                  JOINT RightHandRing1
                  {
                    OFFSET -2.885654 0.293261 -0.119232
                    CHANNELS 3 Zrotation Yrotation Xrotation
                    JOINT RightHandRing2
                    {
                      OFFSET -6.032835 -1e-06 -4e-06
                      CHANNELS 3 Zrotation Yrotation Xrotation
                      JOINT RightHandRing3
                      {
                        OFFSET -4.33881 0.0 -4e-06
                        CHANNELS 3 Zrotation Yrotation Xrotation
                        JOINT RightHandRing4
                        {
                          OFFSET -2.654903 -4e-06 -4e-06
                          CHANNELS 3 Zrotation Yrotation Xrotation
                          JOINT RightHandRingEnd
                          {
                            OFFSET -1.935122 0.0 4e-06
                            CHANNELS 3 Zrotation Yrotation Xrotation
                          }
                        }
                      }
                    }
                  }
                  JOINT RightHandPinky1
                  {
                    OFFSET -2.866241 1.503904 -0.60527
                    CHANNELS 3 Zrotation Yrotation Xrotation
                    JOINT RightHandPinky2
                    {
                      OFFSET -5.553177 -2e-06 0.0
                      CHANNELS 3 Zrotation Yrotation Xrotation
                      JOINT RightHandPinky3
                      {
                        OFFSET -3.062664 -1e-06 -4e-06
                        CHANNELS 3 Zrotation Yrotation Xrotation
                        JOINT RightHandPinky4
                        {
                          OFFSET -1.546529 2e-06 4e-06
                          CHANNELS 3 Zrotation Yrotation Xrotation
                          JOINT RightHandPinkyEnd
                          {
                            OFFSET -1.952341 0.0 -4e-06
                            CHANNELS 3 Zrotation Yrotation Xrotation
                          }
                        }
                      }
                    }
                  }
                }
              }
            }
          }
        }
      }
    }
    JOINT LeftLeg
    {
      OFFSET -8.443107 2.567604 10.043214
      CHANNELS 3 Zrotation Yrotation Xrotation
      JOINT LeftShin
      {
        OFFSET 43.229198 1e-06 -1e-06
        CHANNELS 3 Zrotation Yrotation Xrotation
        JOINT LeftFoot
        {
          OFFSET 42.298611 1e-06 1e-06
          CHANNELS 3 Zrotation Yrotation Xrotation
          JOINT LeftToeBase
          {
            OFFSET 14.165858 1e-06 0.0
            CHANNELS 3 Zrotation Yrotation Xrotation
            JOINT LeftToeEnd
            {
              OFFSET 6.7141 -0.234461 0.0
              CHANNELS 3 Zrotation Yrotation Xrotation
            }
          }
        }
      }
    }
    JOINT RightLeg
    {
      OFFSET -8.303923 2.592729 -10.047278
      CHANNELS 3 Zrotation Yrotation Xrotation
      JOINT RightShin
      {
        OFFSET -43.369682 0.0 1e-06
        CHANNELS 3 Zrotation Yrotation Xrotation
        JOINT RightFoot
        {
          OFFSET -42.260784 4e-06 2e-06
          CHANNELS 3 Zrotation Yrotation Xrotation
          JOINT RightToeBase
          {
            OFFSET -14.222245 -2e-06 -1e-06
            CHANNELS 3 Zrotation Yrotation Xrotation
            JOINT RightToeEnd
            {
              OFFSET -6.660062 0.232574 -2e-06
              CHANNELS 3 Zrotation Yrotation Xrotation
            }
          }
        }
      }
    }
  }
}
MOTION
Frames: 4
Frame Time: 0.03333333333333333
0.0 0.0 0.0 0.0 -0.0 0.0 -7.749996 45.485359 145.193848 92.563416 -43.609074 80.258842 19.015728 -3.469453 1.262006 -4.504422 -1.420604 2.037871 21.214249 -6.505885 -2.006287 18.042818 3.833061 2.904235 -2.525707 -0.906868 1.930134 -26.675953 -0.350313 1.284939 8e-06 -0.0 -0.0 -0.181255 -0.075817 0.027395 -0.186287 -0.135121 0.016031 -0.117439 -0.025297 0.034521 87.693459 -84.806305 -75.726654 46.6404 -21.701664 -26.150948 46.334221 0.424812 0.740047 64.489967 60.57431 65.464027 17.636631 -26.322733 52.411194 -19.466661 -14.395596 29.410389 -2e-06 -8.774821 -3e-06 16.257114 -18.748245 6.417446 -0.609777 -1.795653 -3.889328 -4.807088 -11.046813 -2.937852 3e-06 -20.976021 0.0 -5.019971 -25.033562 -4.031885 6e-06 -0.0 1e-06 -10.634535 -5.686973 -3.565589 10.573272 -17.922951 -3.113899 1e-06 -13.821211 2e-06 -0.501778 -31.181505 -4.027018 -12.258002 -60.420303 8.699547 -13.982716 -7.150199 -2.875043 13.772729 -8.401491 -3.218242 0.347731 -34.211559 0.771654 -0.96303 -17.733372 2.621019 -0.0 -0.0 1e-06 -17.34642 -20.095221 -4.201783 21.757557 -1.638373 3.866429 1e-06 -6.338824 2e-06 -1.697589 -22.591751 -6.194008 -1e-06 -7e-06 -3e-06 -157.276718 -69.623398 -18.854231 82.05188 -7.171479 -47.094189 17.72612 -0.013484 -0.132819 29.574791 67.431801 34.953575 22.182121 -20.375896 49.933331 -16.701818 -16.74353 28.476536 -1e-06 -12.690603 -1e-06 16.956476 -17.968685 2.585865 -0.10592 -1.513856 -4.275882 -5.039042 -5.612873 -2.953559 5e-06 -11.020526 -2e-06 -6.1113 -15.895334 -3.840473 -1e-06 -1e-06 1e-06 -10.283373 -5.680289 -4.341841 11.028297 -11.302407 -2.372635 -1.38427 -14.238583 -6.320122 -0.625435 -26.924191 -3.827604 -3.92851 -50.870983 -4.211279 -13.708527 -7.363478 -3.720942 18.141151 -14.052739 -3.242675 7e-06 -18.787271 -3e-06 -0.429711 -8.456045 2.555504 -0.0 -1e-06 0.0 -15.923539 -20.094486 -5.473588 30.419218 -7.190825 1.735928 3e-06 -8.162922 -1e-06 -1.861902 -22.861469 -6.167944 0.0 -3e-06 -1e-06 106.160614 -7.746789 4.475553 134.641815 1.477769 1.013959 -46.953728 14.917844 -4.195884 -6.509759 0.972713 2.671002 -1.000001 0.0 0.0 -13.299503 5.172173 10.100607 68.700432 0.616118 -0.621378 -30.793158 10.80386 13.765579 -4.385565 0.659059 1.197107 -1.000004 -1e-06 2e-06 
0.0 0.0 0.0 0.0 -0.0 0.0 -7.137013 45.225155 148.022049 94.078247 -44.782135 79.266495 18.550539 -3.796776 1.19527 -4.793658 -1.32332 1.443981 20.574955 -6.445274 -2.519888 18.023867 4.471344 2.734211 -2.460843 -0.648421 1.506428 -27.238686 0.115998 1.021009 5e-06 0.0 -0.0 -0.193206 -0.024352 0.010833 -0.205339 -0.11074 0.005064 -0.12829 0.051595 0.017712 83.525398 -84.396988 -71.407372 44.208073 -23.977327 -27.151119 50.67099 -0.067578 0.624068 63.94622 59.874149 68.73719 17.636639 -26.322737 52.411201 -19.466665 -14.395602 29.410398 -1e-06 -8.774823 -2e-06 16.503553 -18.843927 6.384017 -0.609776 -1.795654 -3.889329 -4.807088 -11.046813 -2.937852 5e-06 -20.976021 1e-06 -5.01997 -25.033562 -4.031881 6e-06 -0.0 2e-06 -10.634535 -5.686971 -3.565588 10.573274 -17.922955 -3.113899 2e-06 -13.821211 2e-06 -0.501776 -31.181505 -4.027017 -12.016556 -60.424088 8.087311 -13.982716 -7.150198 -2.875042 13.772731 -8.401494 -3.218239 0.347734 -34.211559 0.771657 -0.96303 -17.733372 2.62102 0.0 0.0 0.0 -17.346422 -20.095219 -4.201783 21.757561 -1.638374 3.86643 1e-06 -6.338825 2e-06 -1.697588 -22.591745 -6.194007 -1e-06 -5e-06 -2e-06 -162.316635 -70.611656 -14.132913 84.98407 -8.846874 -45.366638 18.575371 -0.192568 -0.110932 31.98386 68.891235 38.17828 22.182121 -20.375898 49.933327 -16.701817 -16.74353 28.476538 -2e-06 -12.6906 -1e-06 16.375038 -17.931053 2.763936 -0.10592 -1.513855 -4.275882 -5.039041 -5.612871 -2.953557 5e-06 -11.020524 -2e-06 -6.111298 -15.89533 -3.840472 0.0 0.0 -0.0 -10.283372 -5.680288 -4.341839 11.028297 -11.302406 -2.372632 -1.384269 -14.23858 -6.320121 -0.625438 -26.924187 -3.8276 -4.24806 -50.633167 -3.948286 -13.708526 -7.363476 -3.72094 18.141151 -14.052737 -3.242674 6e-06 -18.78727 -1e-06 -0.429711 -8.456043 2.555504 -0.0 -1e-06 -0.0 -15.923536 -20.094482 -5.473588 30.419218 -7.190828 1.735927 3e-06 -8.162922 0.0 -1.861901 -22.861473 -6.167941 0.0 -2e-06 -1e-06 107.305305 -6.685694 3.262557 132.082047 1.450407 1.02185 -45.677258 19.440798 -1.203424 -5.383794 0.879295 2.498741 -0.999998 -0.0 0.0 -11.112579 2.80033 9.437696 63.454338 -0.116901 -0.534441 -29.058794 11.336798 13.468172 -1.201134 0.645645 1.246151 -1.000002 0.0 0.0 
0.0 0.0 0.0 0.0 -0.0 0.0 -6.504271 45.360298 150.634247 95.63562 -46.024757 79.414162 18.196154 -3.720601 0.878841 -4.788064 -1.362805 0.911822 19.927629 -6.260211 -3.268105 17.717249 5.711785 3.027807 -2.520687 -0.928081 0.625148 -27.373547 0.531936 0.153956 7e-06 0.0 0.0 -0.191126 0.014653 -0.009518 -0.296814 -0.03344 -0.051689 -0.229945 0.054148 0.031114 71.504852 -84.22525 -59.847164 43.161648 -25.494854 -27.872232 55.45726 -0.605467 0.53411 60.298023 58.471111 68.452324 17.636625 -26.322731 52.411201 -19.466665 -14.395602 29.410395 -2e-06 -8.774821 -1e-06 16.623709 -18.835928 6.311297 -0.609777 -1.795654 -3.889328 -4.807088 -11.046813 -2.93785 5e-06 -20.976019 0.0 -5.019969 -25.03356 -4.031884 6e-06 -0.0 0.0 -10.634535 -5.68697 -3.565588 10.573277 -17.922955 -3.113903 3e-06 -13.821209 1e-06 -0.501774 -31.181505 -4.027019 -12.115038 -60.369659 7.923216 -13.982714 -7.150197 -2.875042 13.772731 -8.401493 -3.218241 0.347736 -34.211555 0.771652 -0.963028 -17.73337 2.62102 -0.0 -1e-06 0.0 -17.34642 -20.095217 -4.201782 21.757561 -1.638375 3.866427 0.0 -6.338825 2e-06 -1.697589 -22.591745 -6.194006 -2e-06 -7e-06 -2e-06 -166.214859 -71.68306 -10.506572 86.713562 -10.389696 -42.931263 18.995079 -0.25753 0.02626 35.191959 71.551033 41.721905 22.182117 -20.375891 49.933327 -16.701811 -16.743528 28.476532 -2e-06 -12.6906 -2e-06 15.72738 -18.1019 3.164222 -0.10592 -1.513855 -4.275881 -5.039042 -5.612872 -2.953557 6e-06 -11.020523 -3e-06 -6.111296 -15.89533 -3.840472 -0.0 1e-06 0.0 -10.283371 -5.680287 -4.34184 11.028293 -11.302404 -2.372632 -1.384269 -14.238577 -6.320123 -0.625437 -26.924187 -3.827602 -4.39916 -50.406483 -4.008847 -13.708524 -7.363475 -3.720942 18.141148 -14.052737 -3.242673 6e-06 -18.787266 -2e-06 -0.429711 -8.45604 2.555504 0.0 -2e-06 -0.0 -15.923532 -20.094481 -5.473588 30.419207 -7.190826 1.735927 3e-06 -8.162921 -0.0 -1.861902 -22.861467 -6.167943 1e-06 -3e-06 -2e-06 108.392273 -4.234549 2.621036 129.751144 1.580287 0.893767 -44.556038 23.268888 0.996065 -3.280044 0.861546 2.469347 -1.0 0.0 0.0 -9.511669 0.110941 7.211973 58.737003 -0.706038 -0.198209 -27.61957 11.332006 12.819342 -0.753799 0.625679 1.329512 -1.000003 -0.0 1e-06 
0.0 0.0 0.0 0.0 -0.0 0.0 -5.78686 46.060646 152.949203 96.679352 -46.936859 79.59005 18.167912 -3.474633 0.77577 -4.92134 -1.513029 0.587398 19.74847 -5.648115 -3.578976 17.154482 6.133429 3.139368 -2.628472 -0.58134 0.141891 -26.800558 0.242218 -0.792428 6e-06 0.0 -0.0 -0.190454 0.040677 -0.027712 -0.407106 0.013631 -0.104698 -0.388443 0.067375 0.049248 59.518063 -83.529915 -48.298565 43.15139 -25.01108 -29.224293 59.810757 -1.252899 0.559257 54.604725 56.162922 65.434311 17.636625 -26.322744 52.411205 -19.46666 -14.395598 29.410395 -2e-06 -8.774821 -2e-06 16.941614 -18.994453 6.275262 -0.609776 -1.795654 -3.88933 -4.80709 -11.046813 -2.937849 5e-06 -20.976019 1e-06 -5.019972 -25.033562 -4.031881 5e-06 -1e-06 2e-06 -10.634534 -5.68697 -3.565587 10.573277 -17.922953 -3.113901 3e-06 -13.821211 2e-06 -0.501779 -31.181519 -4.027014 -11.950993 -60.99305 7.815897 -13.982714 -7.150199 -2.875042 13.772731 -8.401493 -3.218243 0.347731 -34.211559 0.771659 -0.963031 -17.733372 2.621021 -1e-06 -0.0 0.0 -17.34642 -20.095221 -4.20178 21.757559 -1.638375 3.866427 1e-06 -6.338826 0.0 -1.69759 -22.591755 -6.194005 -0.0 -6e-06 -3e-06 -167.692551 -72.520226 -8.573153 87.304962 -11.139761 -42.650764 18.906527 -0.525813 0.119814 42.225708 72.519676 48.218525 22.182117 -20.375895 49.933323 -16.701811 -16.74353 28.47653 -3e-06 -12.6906 -1e-06 15.385001 -18.067739 3.38941 -0.105919 -1.513857 -4.275883 -5.039042 -5.612871 -2.953557 6e-06 -11.020523 -2e-06 -6.111298 -15.89533 -3.840472 0.0 1e-06 2e-06 -10.283371 -5.680289 -4.34184 11.028294 -11.302405 -2.372632 -1.384269 -14.238582 -6.320122 -0.625438 -26.924187 -3.827601 -4.404988 -50.374256 -3.978257 -13.708526 -7.363477 -3.720941 18.141148 -14.052739 -3.242674 6e-06 -18.787275 -2e-06 -0.429711 -8.456044 2.555504 -0.0 -0.0 0.0 -15.923536 -20.094482 -5.473586 30.41921 -7.190826 1.735926 2e-06 -8.162921 0.0 -1.861902 -22.861469 -6.167943 0.0 -3e-06 -1e-06 109.785667 -2.627959 2.077186 127.148972 1.509226 0.862104 -45.530605 26.103945 1.535197 -4.198455 0.911355 2.253394 -1.0 1e-06 0.0 -8.547266 -2.073061 4.188056 55.090832 -1.760651 0.46943 -27.767136 11.16814 11.003202 0.169451 0.603579 1.376474 -1.000003 0.0 0.0 
